<mxfile host="65bd71144e" modified="2021-02-28T15:21:34.727Z" agent="5.0 (Macintosh; Intel Mac OS X 10_14_6) AppleWebKit/537.36 (KHTML, like Gecko) Code/1.53.2 Chrome/87.0.4280.141 Electron/11.2.1 Safari/537.36" etag="nvl08Fxr75jMO5T0UxeU" version="14.2.4" type="embed">
    <diagram id="ExdccTZqctQwAvQB16s_" name="Page-1">
        <mxGraphModel dx="1547" dy="1585" grid="1" gridSize="10" guides="1" tooltips="1" connect="1" arrows="1" fold="1" page="0" pageScale="1" pageWidth="827" pageHeight="1169" math="0" shadow="0">
            <root>
                <mxCell id="0"/>
                <mxCell id="1" parent="0"/>
                <mxCell id="2M91R3iAnrZrVvDSjcHK-1" value="node1" style="rounded=0;whiteSpace=wrap;html=1;" parent="1" vertex="1">
                    <mxGeometry x="-80" y="-282" width="120" height="41" as="geometry"/>
                </mxCell>
                <mxCell id="2M91R3iAnrZrVvDSjcHK-2" value="node2" style="rounded=0;whiteSpace=wrap;html=1;" parent="1" vertex="1">
                    <mxGeometry x="120" y="-280" width="120" height="39" as="geometry"/>
                </mxCell>
                <mxCell id="2M91R3iAnrZrVvDSjcHK-3" value="node3" style="rounded=0;whiteSpace=wrap;html=1;" parent="1" vertex="1">
                    <mxGeometry x="320" y="-281" width="120" height="40" as="geometry"/>
                </mxCell>
                <mxCell id="2M91R3iAnrZrVvDSjcHK-4" value="bootstrap node" style="rounded=0;whiteSpace=wrap;html=1;" parent="1" vertex="1">
                    <mxGeometry x="120" y="-90" width="120" height="40" as="geometry"/>
                </mxCell>
                <mxCell id="2M91R3iAnrZrVvDSjcHK-5" value="target node" style="rounded=0;whiteSpace=wrap;html=1;" parent="1" vertex="1">
                    <mxGeometry x="400" y="-90" width="120" height="40" as="geometry"/>
                </mxCell>
                <mxCell id="2M91R3iAnrZrVvDSjcHK-20" value="" style="endArrow=classic;html=1;fontSize=18;exitX=0.75;exitY=1;exitDx=0;exitDy=0;entryX=0.25;entryY=0;entryDx=0;entryDy=0;" parent="1" edge="1" target="2M91R3iAnrZrVvDSjcHK-4" source="2M91R3iAnrZrVvDSjcHK-1">
                    <mxGeometry x="-80" y="-261" width="50" height="50" as="geometry">
                        <mxPoint y="-220" as="sourcePoint"/>
                        <mxPoint x="180" y="-90" as="targetPoint"/>
                    </mxGeometry>
                </mxCell>
                <mxCell id="10" value="bootstrap nodeと&lt;br&gt;node1, node2, node3 は&lt;br&gt;それぞれをルーティングテーブルに持っている。" style="shape=note;whiteSpace=wrap;html=1;backgroundOutline=1;darkOpacity=0.05;" parent="1" vertex="1">
                    <mxGeometry x="520" y="-430" width="280" height="120" as="geometry"/>
                </mxCell>
                <mxCell id="12" value="" style="endArrow=classic;html=1;fontSize=18;exitX=0.5;exitY=1;exitDx=0;exitDy=0;entryX=0.5;entryY=0;entryDx=0;entryDy=0;" edge="1" parent="1" source="2M91R3iAnrZrVvDSjcHK-2" target="2M91R3iAnrZrVvDSjcHK-4">
                    <mxGeometry x="-70" y="-251" width="50" height="50" as="geometry">
                        <mxPoint x="20" y="-231" as="sourcePoint"/>
                        <mxPoint x="130" y="-80" as="targetPoint"/>
                    </mxGeometry>
                </mxCell>
                <mxCell id="13" value="" style="endArrow=classic;html=1;fontSize=18;exitX=0.25;exitY=1;exitDx=0;exitDy=0;entryX=0.75;entryY=0;entryDx=0;entryDy=0;" edge="1" parent="1" source="2M91R3iAnrZrVvDSjcHK-3" target="2M91R3iAnrZrVvDSjcHK-4">
                    <mxGeometry x="-60" y="-241" width="50" height="50" as="geometry">
                        <mxPoint x="190" y="-231" as="sourcePoint"/>
                        <mxPoint x="190" y="-80" as="targetPoint"/>
                    </mxGeometry>
                </mxCell>
                <mxCell id="14" value="" style="endArrow=classic;html=1;fontSize=18;exitX=0;exitY=0;exitDx=0;exitDy=0;entryX=0.442;entryY=1.024;entryDx=0;entryDy=0;entryPerimeter=0;" edge="1" parent="1" source="2M91R3iAnrZrVvDSjcHK-4" target="2M91R3iAnrZrVvDSjcHK-1">
                    <mxGeometry x="-70" y="-251" width="50" height="50" as="geometry">
                        <mxPoint x="20" y="-231" as="sourcePoint"/>
                        <mxPoint x="-30" y="-100" as="targetPoint"/>
                    </mxGeometry>
                </mxCell>
                <mxCell id="15" value="" style="endArrow=classic;html=1;fontSize=18;entryX=0.45;entryY=1.025;entryDx=0;entryDy=0;entryPerimeter=0;exitX=1;exitY=0;exitDx=0;exitDy=0;" edge="1" parent="1" source="2M91R3iAnrZrVvDSjcHK-4" target="2M91R3iAnrZrVvDSjcHK-3">
                    <mxGeometry x="-50" y="-231" width="50" height="50" as="geometry">
                        <mxPoint x="340" y="-110" as="sourcePoint"/>
                        <mxPoint x="220" y="-80" as="targetPoint"/>
                    </mxGeometry>
                </mxCell>
                <mxCell id="16" value="" style="endArrow=classic;html=1;fontSize=18;entryX=0.617;entryY=0.974;entryDx=0;entryDy=0;entryPerimeter=0;exitX=0.608;exitY=-0.075;exitDx=0;exitDy=0;exitPerimeter=0;" edge="1" parent="1" source="2M91R3iAnrZrVvDSjcHK-4" target="2M91R3iAnrZrVvDSjcHK-2">
                    <mxGeometry x="-60" y="-241" width="50" height="50" as="geometry">
                        <mxPoint x="280" y="-220" as="sourcePoint"/>
                        <mxPoint x="190" y="-80" as="targetPoint"/>
                    </mxGeometry>
                </mxCell>
                <mxCell id="17" value="" style="shape=table;html=1;whiteSpace=wrap;startSize=0;container=1;collapsible=0;childLayout=tableLayout;" vertex="1" parent="1">
                    <mxGeometry x="-130" y="-350" width="120" height="40" as="geometry"/>
                </mxCell>
                <mxCell id="21" value="" style="shape=partialRectangle;html=1;whiteSpace=wrap;collapsible=0;dropTarget=0;pointerEvents=0;fillColor=none;top=0;left=0;bottom=0;right=0;points=[[0,0.5],[1,0.5]];portConstraint=eastwest;" vertex="1" parent="17">
                    <mxGeometry width="120" height="40" as="geometry"/>
                </mxCell>
                <mxCell id="22" value="256" style="shape=partialRectangle;html=1;whiteSpace=wrap;connectable=0;overflow=hidden;fillColor=none;top=0;left=0;bottom=0;right=0;" vertex="1" parent="21">
                    <mxGeometry width="30" height="40" as="geometry"/>
                </mxCell>
                <mxCell id="23" value="bootstrap node" style="shape=partialRectangle;html=1;whiteSpace=wrap;connectable=0;overflow=hidden;fillColor=none;top=0;left=0;bottom=0;right=0;" vertex="1" parent="21">
                    <mxGeometry x="30" width="90" height="40" as="geometry"/>
                </mxCell>
                <mxCell id="24" value="k-buckets" style="text;html=1;align=center;verticalAlign=middle;resizable=0;points=[];autosize=1;" vertex="1" parent="1">
                    <mxGeometry x="-105" y="-370" width="70" height="20" as="geometry"/>
                </mxCell>
                <mxCell id="25" value="" style="shape=table;html=1;whiteSpace=wrap;startSize=0;container=1;collapsible=0;childLayout=tableLayout;" vertex="1" parent="1">
                    <mxGeometry x="120" y="-350" width="120" height="40" as="geometry"/>
                </mxCell>
                <mxCell id="26" value="" style="shape=partialRectangle;html=1;whiteSpace=wrap;collapsible=0;dropTarget=0;pointerEvents=0;fillColor=none;top=0;left=0;bottom=0;right=0;points=[[0,0.5],[1,0.5]];portConstraint=eastwest;" vertex="1" parent="25">
                    <mxGeometry width="120" height="40" as="geometry"/>
                </mxCell>
                <mxCell id="27" value="256" style="shape=partialRectangle;html=1;whiteSpace=wrap;connectable=0;overflow=hidden;fillColor=none;top=0;left=0;bottom=0;right=0;" vertex="1" parent="26">
                    <mxGeometry width="30" height="40" as="geometry"/>
                </mxCell>
                <mxCell id="28" value="bootstrap node" style="shape=partialRectangle;html=1;whiteSpace=wrap;connectable=0;overflow=hidden;fillColor=none;top=0;left=0;bottom=0;right=0;" vertex="1" parent="26">
                    <mxGeometry x="30" width="90" height="40" as="geometry"/>
                </mxCell>
                <mxCell id="29" value="k-buckets" style="text;html=1;align=center;verticalAlign=middle;resizable=0;points=[];autosize=1;" vertex="1" parent="1">
                    <mxGeometry x="145" y="-370" width="70" height="20" as="geometry"/>
                </mxCell>
                <mxCell id="30" value="" style="shape=table;html=1;whiteSpace=wrap;startSize=0;container=1;collapsible=0;childLayout=tableLayout;" vertex="1" parent="1">
                    <mxGeometry x="330" y="-350" width="120" height="40" as="geometry"/>
                </mxCell>
                <mxCell id="31" value="" style="shape=partialRectangle;html=1;whiteSpace=wrap;collapsible=0;dropTarget=0;pointerEvents=0;fillColor=none;top=0;left=0;bottom=0;right=0;points=[[0,0.5],[1,0.5]];portConstraint=eastwest;" vertex="1" parent="30">
                    <mxGeometry width="120" height="40" as="geometry"/>
                </mxCell>
                <mxCell id="32" value="256" style="shape=partialRectangle;html=1;whiteSpace=wrap;connectable=0;overflow=hidden;fillColor=none;top=0;left=0;bottom=0;right=0;" vertex="1" parent="31">
                    <mxGeometry width="30" height="40" as="geometry"/>
                </mxCell>
                <mxCell id="33" value="bootstrap node" style="shape=partialRectangle;html=1;whiteSpace=wrap;connectable=0;overflow=hidden;fillColor=none;top=0;left=0;bottom=0;right=0;" vertex="1" parent="31">
                    <mxGeometry x="30" width="90" height="40" as="geometry"/>
                </mxCell>
                <mxCell id="34" value="k-buckets" style="text;html=1;align=center;verticalAlign=middle;resizable=0;points=[];autosize=1;" vertex="1" parent="1">
                    <mxGeometry x="355" y="-370" width="70" height="20" as="geometry"/>
                </mxCell>
                <mxCell id="42" value="" style="shape=table;html=1;whiteSpace=wrap;startSize=0;container=1;collapsible=0;childLayout=tableLayout;" vertex="1" parent="1">
                    <mxGeometry x="80" width="190" height="40" as="geometry"/>
                </mxCell>
                <mxCell id="43" value="" style="shape=partialRectangle;html=1;whiteSpace=wrap;collapsible=0;dropTarget=0;pointerEvents=0;fillColor=none;top=0;left=0;bottom=0;right=0;points=[[0,0.5],[1,0.5]];portConstraint=eastwest;" vertex="1" parent="42">
                    <mxGeometry width="190" height="40" as="geometry"/>
                </mxCell>
                <mxCell id="44" value="256" style="shape=partialRectangle;html=1;whiteSpace=wrap;connectable=0;overflow=hidden;fillColor=none;top=0;left=0;bottom=0;right=0;" vertex="1" parent="43">
                    <mxGeometry width="48" height="40" as="geometry"/>
                </mxCell>
                <mxCell id="45" value="node1, node2, node3" style="shape=partialRectangle;html=1;whiteSpace=wrap;connectable=0;overflow=hidden;fillColor=none;top=0;left=0;bottom=0;right=0;" vertex="1" parent="43">
                    <mxGeometry x="48" width="142" height="40" as="geometry"/>
                </mxCell>
                <mxCell id="46" value="k-buckets" style="text;html=1;align=center;verticalAlign=middle;resizable=0;points=[];autosize=1;" vertex="1" parent="1">
                    <mxGeometry x="145" y="-20" width="70" height="20" as="geometry"/>
                </mxCell>
                <mxCell id="47" value="target nodeは&lt;br&gt;どのノードの情報も持っていない。" style="shape=note;whiteSpace=wrap;html=1;backgroundOutline=1;darkOpacity=0.05;" vertex="1" parent="1">
                    <mxGeometry x="550" y="-60" width="280" height="120" as="geometry"/>
                </mxCell>
            </root>
        </mxGraphModel>
    </diagram>
</mxfile>